<?xml version="1.0" encoding="UTF-8" standalone="no"?>
<!-- Created with Inkscape (http://www.inkscape.org/) -->

<svg
   xmlns:dc="http://purl.org/dc/elements/1.1/"
   xmlns:cc="http://creativecommons.org/ns#"
   xmlns:rdf="http://www.w3.org/1999/02/22-rdf-syntax-ns#"
   xmlns:svg="http://www.w3.org/2000/svg"
   xmlns="http://www.w3.org/2000/svg"
   xmlns:xlink="http://www.w3.org/1999/xlink"
   xmlns:sodipodi="http://sodipodi.sourceforge.net/DTD/sodipodi-0.dtd"
   xmlns:inkscape="http://www.inkscape.org/namespaces/inkscape"
   width="128"
   height="24"
   id="svg2"
   version="1.1"
   inkscape:version="0.48+devel r10016"
   sodipodi:docname="New document 1">
  <defs
     id="defs4">
    <linearGradient
       id="linearGradient830">
      <stop
         style="stop-color:#c0c0c0;stop-opacity:1;"
         offset="0"
         id="stop832" />
      <stop
         style="stop-color:#e0e0e0;stop-opacity:1;"
         offset="1"
         id="stop834" />
    </linearGradient>
    <linearGradient
       inkscape:collect="always"
       id="linearGradient822">
      <stop
         style="stop-color:#808080;stop-opacity:1;"
         offset="0"
         id="stop824" />
      <stop
         style="stop-color:#808080;stop-opacity:0;"
         offset="1"
         id="stop826" />
    </linearGradient>
    <linearGradient
       id="linearGradient794">
      <stop
         style="stop-color:#000000;stop-opacity:1;"
         offset="0"
         id="stop796" />
      <stop
         style="stop-color:#404040;stop-opacity:1;"
         offset="1"
         id="stop798" />
    </linearGradient>
    <linearGradient
       inkscape:collect="always"
       xlink:href="#linearGradient794"
       id="linearGradient800"
       x1="23"
       y1="1044.3622"
       x2="7"
       y2="1033.3622"
       gradientUnits="userSpaceOnUse" />
    <linearGradient
       inkscape:collect="always"
       xlink:href="#linearGradient822"
       id="linearGradient828"
       x1="15"
       y1="1046.3622"
       x2="15"
       y2="1048.3622"
       gradientUnits="userSpaceOnUse"
       gradientTransform="translate(0,1.0000869)" />
    <linearGradient
       inkscape:collect="always"
       xlink:href="#linearGradient830"
       id="linearGradient836"
       x1="25"
       y1="19"
       x2="5"
       y2="3"
       gradientUnits="userSpaceOnUse" />
    <linearGradient
       inkscape:collect="always"
       xlink:href="#linearGradient822"
       id="linearGradient844"
       gradientUnits="userSpaceOnUse"
       gradientTransform="translate(0,-1027.3621)"
       x1="15"
       y1="1046.3622"
       x2="15"
       y2="1048.3622" />
    <linearGradient
       inkscape:collect="always"
       xlink:href="#linearGradient822"
       id="linearGradient866"
       gradientUnits="userSpaceOnUse"
       gradientTransform="translate(0,1.0000869)"
       x1="15"
       y1="1046.3622"
       x2="15"
       y2="1048.3622" />
    <linearGradient
       inkscape:collect="always"
       xlink:href="#linearGradient830"
       id="linearGradient868"
       gradientUnits="userSpaceOnUse"
       x1="25"
       y1="19"
       x2="5"
       y2="3" />
    <linearGradient
       inkscape:collect="always"
       xlink:href="#linearGradient794"
       id="linearGradient870"
       gradientUnits="userSpaceOnUse"
       x1="23"
       y1="1044.3622"
       x2="7"
       y2="1033.3622" />
  </defs>
  <sodipodi:namedview
     id="base"
     pagecolor="#ffffff"
     bordercolor="#666666"
     borderopacity="1.0"
     inkscape:pageopacity="0.0"
     inkscape:pageshadow="2"
     inkscape:zoom="16"
     inkscape:cx="20.474271"
     inkscape:cy="8.6103779"
     inkscape:document-units="px"
     inkscape:current-layer="layer1"
     showgrid="false"
     inkscape:window-width="1600"
     inkscape:window-height="845"
     inkscape:window-x="-3"
     inkscape:window-y="-3"
     inkscape:window-maximized="1">
    <inkscape:grid
       type="xygrid"
       id="grid10"
       empspacing="8"
       visible="true"
       enabled="true"
       snapvisiblegridlinesonly="true" />
  </sodipodi:namedview>
  <metadata
     id="metadata7">
    <rdf:RDF>
      <cc:Work
         rdf:about="">
        <dc:format>image/svg+xml</dc:format>
        <dc:type
           rdf:resource="http://purl.org/dc/dcmitype/StillImage" />
        <dc:title></dc:title>
      </cc:Work>
    </rdf:RDF>
  </metadata>
  <g
     inkscape:label="Layer 1"
     inkscape:groupmode="layer"
     id="layer1"
     transform="translate(0,-1028.3622)">
    <path
       style="fill:#000000;fill-opacity:1;stroke:none"
       d="M 0 0 L 0 24 L 2 24 L 126 24 L 128 24 L 128 22 L 128 0 L 126 0 L 126 22 L 2 22 L 2 0 L 0 0 z "
       transform="translate(0,1028.3622)"
       id="rect12" />
    <g
       id="g856"
       transform="translate(-1,-0.99998262)"
       inkscape:export-filename="/media/Animus/userspace/Development/php/debug/images/debug-icon.png"
       inkscape:export-xdpi="90"
       inkscape:export-ydpi="90">
      <rect
         style="fill:url(#linearGradient866);fill-opacity:1;stroke:none"
         id="rect820"
         width="20"
         height="16"
         x="5"
         y="1033.3622"
         rx="2"
         ry="2" />
      <rect
         ry="2"
         rx="2"
         transform="translate(0,1028.3622)"
         y="3"
         x="5"
         height="16"
         width="20"
         id="rect787"
         style="fill:url(#linearGradient868);fill-opacity:1;stroke:none" />
      <rect
         ry="1.0000174"
         rx="1.0000174"
         style="fill:url(#linearGradient870);fill-opacity:1;stroke:none"
         id="rect789"
         width="16"
         height="11.000017"
         x="7"
         y="1033.3622" />
      <g
         id="g816">
        <path
           style="font-size:medium;font-style:normal;font-variant:normal;font-weight:normal;font-stretch:normal;text-indent:0;text-align:start;text-decoration:none;line-height:normal;letter-spacing:normal;word-spacing:normal;text-transform:none;direction:ltr;block-progression:tb;writing-mode:lr-tb;text-anchor:start;baseline-shift:baseline;color:#000000;fill:#ffffff;fill-opacity:1;stroke:none;stroke-width:2;marker:none;visibility:visible;display:inline;overflow:visible;enable-background:accumulate;font-family:Sans;-inkscape-font-specification:Sans"
           d="m 8.8087701,1034.3858 a 0.98439704,0.99244454 0 0 0 -0.492149,1.7057 l 1.261133,1.2712 -1.261133,1.2717 a 1.0005061,1.0086852 0 1 0 1.414929,1.4264 l 1.9685979,-1.9846 a 0.98439704,0.99244454 0 0 0 0,-1.4266 l -1.9685979,-1.9847 a 0.98439704,0.99244454 0 0 0 -0.92278,-0.2791 z"
           id="path802"
           inkscape:connector-curvature="0" />
        <path
           style="font-size:medium;font-style:normal;font-variant:normal;font-weight:normal;font-stretch:normal;text-indent:0;text-align:start;text-decoration:none;line-height:normal;letter-spacing:normal;word-spacing:normal;text-transform:none;direction:ltr;block-progression:tb;writing-mode:lr-tb;text-anchor:start;baseline-shift:baseline;color:#000000;fill:#ffffff;fill-opacity:1;stroke:none;stroke-width:2;marker:none;visibility:visible;display:inline;overflow:visible;enable-background:accumulate;font-family:Sans;-inkscape-font-specification:Sans"
           d="m 13.397442,1038.3663 a 0.98004835,0.99970595 0 1 0 0.182956,1.9906 l 2.92731,0 a 0.97586726,0.99544101 0 1 0 0,-1.9906 l -2.92731,0 a 0.97586726,0.99544101 0 0 0 -0.182956,0 z"
           id="path804"
           inkscape:connector-curvature="0" />
      </g>
      <rect
         y="1033.3622"
         x="7"
         height="11.000017"
         width="16"
         id="rect838"
         style="fill:none;stroke:#000000;stroke-opacity:0.37647059"
         rx="1.0000174"
         ry="1.0000174" />
      <path
         id="rect847"
         transform="translate(0,1028.3622)"
         d="M 7,3 C 5.892,3 5,3.892 5,5 l 0,12 c 0,1.108 0.892,2 2,2 l 16,0 c 1.108,0 2,-0.892 2,-2 L 25,5 C 25,3.892 24.108,3 23,3 L 7,3 z m 0,0.5 16,0 c 0.839649,0 1.5,0.6604 1.5,1.5 l 0,12 c 0,0.8396 -0.660351,1.5 -1.5,1.5 l -16,0 C 6.1603514,18.5 5.5,17.8396 5.5,17 L 5.5,5 C 5.5,4.1604 6.1603514,3.5 7,3.5 z"
         style="font-size:medium;font-style:normal;font-variant:normal;font-weight:normal;font-stretch:normal;text-indent:0;text-align:start;text-decoration:none;line-height:normal;letter-spacing:normal;word-spacing:normal;text-transform:none;direction:ltr;block-progression:tb;writing-mode:lr-tb;text-anchor:start;baseline-shift:baseline;color:#000000;fill:#000000;fill-opacity:0.1254902;stroke:none;stroke-width:1;marker:none;visibility:visible;display:inline;overflow:visible;enable-background:accumulate;font-family:Sans;-inkscape-font-specification:Sans"
         inkscape:connector-curvature="0" />
    </g>
  </g>
</svg>
