<?xml version="1.0" encoding="UTF-8" standalone="no"?>
<!-- Created with Inkscape (http://www.inkscape.org/) -->

<svg
   xmlns:dc="http://purl.org/dc/elements/1.1/"
   xmlns:cc="http://creativecommons.org/ns#"
   xmlns:rdf="http://www.w3.org/1999/02/22-rdf-syntax-ns#"
   xmlns:svg="http://www.w3.org/2000/svg"
   xmlns="http://www.w3.org/2000/svg"
   xmlns:sodipodi="http://sodipodi.sourceforge.net/DTD/sodipodi-0.dtd"
   xmlns:inkscape="http://www.inkscape.org/namespaces/inkscape"
   width="12"
   height="12"
   id="svg2"
   version="1.1"
   inkscape:version="0.48+devel r10016"
   sodipodi:docname="resize-icon.svg">
  <defs
     id="defs4" />
  <sodipodi:namedview
     id="base"
     pagecolor="#ffffff"
     bordercolor="#666666"
     borderopacity="1.0"
     inkscape:pageopacity="0.0"
     inkscape:pageshadow="2"
     inkscape:zoom="53.333333"
     inkscape:cx="7.275"
     inkscape:cy="3.75"
     inkscape:document-units="px"
     inkscape:current-layer="layer1"
     showgrid="true"
     inkscape:window-width="1600"
     inkscape:window-height="845"
     inkscape:window-x="-3"
     inkscape:window-y="-3"
     inkscape:window-maximized="1">
    <inkscape:grid
       type="xygrid"
       id="grid10"
       empspacing="4"
       visible="true"
       enabled="true"
       snapvisiblegridlinesonly="true" />
  </sodipodi:namedview>
  <metadata
     id="metadata7">
    <rdf:RDF>
      <cc:Work
         rdf:about="">
        <dc:format>image/svg+xml</dc:format>
        <dc:type
           rdf:resource="http://purl.org/dc/dcmitype/StillImage" />
        <dc:title />
      </cc:Work>
    </rdf:RDF>
  </metadata>
  <g
     inkscape:label="Layer 1"
     inkscape:groupmode="layer"
     id="layer1"
     transform="translate(0,-1040.3622)">
    <g
       id="g792"
       inkscape:export-filename="/media/Animus/userspace/Development/php/debug/images/resize-icon.png"
       inkscape:export-xdpi="90"
       inkscape:export-ydpi="90">
      <path
         id="path12"
         transform="translate(0,1040.3622)"
         d="M 11 0 L 0 11 L 0 12 L 1 12 L 12 1 L 12 0 L 11 0 z M 11 4 L 4 11 L 4 12 L 5 12 L 12 5 L 12 4 L 11 4 z M 11 8 L 8 11 L 8 12 L 9 12 L 12 9 L 12 8 L 11 8 z "
         style="fill:#808080;stroke:none;stroke-width:1px;stroke-linecap:butt;stroke-linejoin:miter;stroke-opacity:1;fill-opacity:0.25098041" />
      <path
         id="path787"
         transform="translate(0,1040.3622)"
         d="M 11 0 L 0 11 L 0 11.5 L 0.5 11.5 L 11.5 0.5 L 11.5 0 L 11 0 z M 11 4 L 4 11 L 4 11.5 L 4.5 11.5 L 11.5 4.5 L 11.5 4 L 11 4 z M 11 8 L 8 11 L 8 11.5 L 8.5 11.5 L 11.5 8.5 L 11.5 8 L 11 8 z "
         style="fill:#ffffff;fill-opacity:0.25098041;stroke:none" />
    </g>
  </g>
</svg>
