<?xml version="1.0" encoding="UTF-8" standalone="no"?>
<!-- Created with Inkscape (http://www.inkscape.org/) -->

<svg
   xmlns:dc="http://purl.org/dc/elements/1.1/"
   xmlns:cc="http://creativecommons.org/ns#"
   xmlns:rdf="http://www.w3.org/1999/02/22-rdf-syntax-ns#"
   xmlns:svg="http://www.w3.org/2000/svg"
   xmlns="http://www.w3.org/2000/svg"
   xmlns:sodipodi="http://sodipodi.sourceforge.net/DTD/sodipodi-0.dtd"
   xmlns:inkscape="http://www.inkscape.org/namespaces/inkscape"
   width="184"
   height="16"
   id="svg2"
   version="1.1"
   inkscape:version="0.48.2 r9819"
   sodipodi:docname="icons.svg">
  <defs
     id="defs4" />
  <sodipodi:namedview
     id="base"
     pagecolor="#ffffff"
     bordercolor="#666666"
     borderopacity="1.0"
     inkscape:pageopacity="0.0"
     inkscape:pageshadow="2"
     inkscape:zoom="11.313708"
     inkscape:cx="121.99595"
     inkscape:cy="-11.834448"
     inkscape:document-units="px"
     inkscape:current-layer="layer1"
     showgrid="true"
     inkscape:window-width="1680"
     inkscape:window-height="991"
     inkscape:window-x="0"
     inkscape:window-y="30"
     inkscape:window-maximized="1">
    <inkscape:grid
       type="xygrid"
       id="grid2985"
       empspacing="4"
       visible="true"
       enabled="true"
       snapvisiblegridlinesonly="true"
       empcolor="#0000ff"
       empopacity="0.25098039" />
    <inkscape:grid
       type="xygrid"
       id="grid2987"
       empspacing="16"
       visible="true"
       enabled="true"
       snapvisiblegridlinesonly="true"
       empcolor="#ff0000"
       empopacity="0.50196078" />
  </sodipodi:namedview>
  <metadata
     id="metadata7">
    <rdf:RDF>
      <cc:Work
         rdf:about="">
        <dc:format>image/svg+xml</dc:format>
        <dc:type
           rdf:resource="http://purl.org/dc/dcmitype/StillImage" />
        <dc:title></dc:title>
      </cc:Work>
    </rdf:RDF>
  </metadata>
  <g
     inkscape:label="Layer 1"
     inkscape:groupmode="layer"
     id="layer1"
     transform="translate(0,-1036.3622)">
    <g
       id="g3507"
       inkscape:export-filename="/media/Animus/freelance/Resume/phone-icon.png"
       inkscape:export-xdpi="90"
       inkscape:export-ydpi="90">
      <rect
         transform="translate(0,1036.3622)"
         y="0"
         x="0"
         height="16"
         width="16"
         id="rect2989"
         style="fill:#000000;fill-opacity:1;fill-rule:nonzero;stroke:none" />
      <path
         sodipodi:nodetypes="cccccccccccc"
         inkscape:connector-curvature="0"
         id="path3759"
         d="m 9.8278262,1037.0757 c -0.7071068,1.2248 -0.8965755,4.3814 -0.8965755,4.3814 0.9659259,-0.2589 1.2247453,0.7071 1.2247453,0.7071 0.258819,0.9659 0.517638,1.9318 -0.1894691,3.1566 -0.7071068,1.2247 -1.6730326,1.4835 -2.6389584,1.7423 0,0 -0.9659259,0.2589 -1.2247449,-0.7071 0,0 -2.6389584,1.7424 -3.3460652,2.9672 0.258819,0.9659 1.4835639,1.673 2.7083088,2.3801 2.6389584,-1.7424 4.311991,-3.2259 4.311991,-3.2259 1.6730328,-1.4836 2.3801398,-2.7084 2.8284278,-4.899 0,0 0.448287,-2.1907 0.637756,-5.3473 -1.224745,-0.7071 -2.44949,-1.4142 -3.4154158,-1.1554 z"
         style="fill:#ffffff;fill-opacity:1;stroke:none" />
    </g>
    <g
       id="g3503"
       inkscape:export-filename="/media/Animus/freelance/Resume/email-icon.png"
       inkscape:export-xdpi="90"
       inkscape:export-ydpi="90">
      <rect
         style="fill:#000000;fill-opacity:1;fill-rule:nonzero;stroke:none"
         id="rect3761"
         width="16"
         height="16"
         x="16"
         y="1036.3622" />
      <path
         inkscape:connector-curvature="0"
         id="path3763"
         d="m 18,1039.3622 6,5 6,-5 -12,0 z m 0,2 0,8 12,0 0,-8 -6,5 -6,-5 z"
         style="fill:#ffffff;fill-opacity:1;stroke:none" />
    </g>
    <g
       id="g3499"
       inkscape:export-filename="/media/Animus/freelance/Resume/chat-icon.png"
       inkscape:export-xdpi="90"
       inkscape:export-ydpi="90">
      <rect
         y="1036.3622"
         x="32"
         height="16"
         width="16"
         id="rect3789"
         style="fill:#000000;fill-opacity:1;fill-rule:nonzero;stroke:none" />
      <path
         inkscape:connector-curvature="0"
         id="rect3791"
         d="m 36,1039.3622 c -1.108,0 -2,0.892 -2,2 l 0,4 c 0,1.108 0.892,2 2,2 l 0,3 3,-3 5,0 c 1.108,0 2,-0.892 2,-2 l 0,-4 c 0,-1.108 -0.892,-2 -2,-2 l -8,0 z"
         style="fill:#ffffff;fill-opacity:1;fill-rule:nonzero;stroke:none" />
    </g>
    <g
       id="g3495"
       inkscape:export-filename="/media/Animus/freelance/Resume/twitter-icon.png"
       inkscape:export-xdpi="90"
       inkscape:export-ydpi="90">
      <rect
         style="fill:#000000;fill-opacity:1;fill-rule:nonzero;stroke:none"
         id="rect3806"
         width="16"
         height="16"
         x="48"
         y="1036.3622" />
      <path
         inkscape:connector-curvature="0"
         id="path3810"
         d="m 60.453125,1037.9559 c -1.380712,0 -2.5,1.1193 -2.5,2.5 0,0.2865 0.03628,0.5562 0.125,0.8125 l -5.21875,5.2188 -0.5,-2.3438 -3.6875,2.125 3,1.4688 c 0.869341,0.8541 1.964855,1.3158 3.09375,1.4062 l 0,1.625 1,0 0,-1.6562 c 0.343736,-0.04 0.669031,-0.1071 1,-0.2188 l 0,0.875 1,0 0,-1.3125 c 0.334067,-0.2034 0.648671,-0.4612 0.9375,-0.75 1.309212,-1.3093 1.727663,-3.1439 1.28125,-4.8125 0.145021,0.026 0.316188,0.062 0.46875,0.062 0.183331,0 0.359145,-0.025 0.53125,-0.062 l 2.34375,1.125 -0.5625,-2.75 c 0.09078,-0.2589 0.1875,-0.5226 0.1875,-0.8125 0,-1.3807 -1.119288,-2.5 -2.5,-2.5 z"
         style="fill:#ffffff;fill-opacity:1;fill-rule:nonzero;stroke:none" />
    </g>
    <g
       id="g3491"
       inkscape:export-filename="/media/Animus/freelance/Resume/googleplus-icon.png"
       inkscape:export-xdpi="90"
       inkscape:export-ydpi="90">
      <rect
         y="1036.3622"
         x="64"
         height="16"
         width="16"
         id="rect3860"
         style="fill:#000000;fill-opacity:1;fill-rule:nonzero;stroke:none" />
      <path
         id="path3888"
         transform="translate(0,1036.3622)"
         d="M 69.15625 3.21875 C 67.373788 3.21875 66.28125 4.16425 66.28125 5.53125 C 66.28125 6.49615 66.85194 7.22295 67.9375 7.53125 C 67.441627 7.97355 67.21875 8.3702 67.21875 8.8125 C 67.21875 9.0001 67.254384 9.21405 67.375 9.46875 C 66.517274 9.54875 66 10.1066 66 10.9375 C 66 12.0365 67.012189 12.78125 68.78125 12.78125 C 70.938966 12.78125 72.375 11.66605 72.375 10.40625 C 72.375 9.26715 71.380785 8.87525 69.4375 8.59375 L 68.53125 8.46875 C 68.50445 8.33475 68.5 8.20095 68.5 8.09375 C 68.5 7.93295 68.526744 7.7992 68.59375 7.625 C 68.72777 7.638 68.879383 7.625 69 7.625 C 70.769059 7.625 71.84375 6.69285 71.84375 5.40625 C 71.84375 5.05775 71.732284 4.7235 71.53125 4.375 L 72.96875 4.375 L 72.96875 3.59375 L 71 3.59375 C 70.343302 3.32575 69.732535 3.21875 69.15625 3.21875 z M 69.125 3.84375 C 69.714687 3.84375 70.1875 4.41 70.1875 5.375 C 70.1875 6.3935 69.723643 7.03125 69.09375 7.03125 C 68.450456 7.03125 68 6.42475 68 5.40625 C 68 4.42785 68.454902 3.84375 69.125 3.84375 z M 75 4 L 75 6 L 73 6 L 73 7 L 75 7 L 75 9 L 76 9 L 76 7 L 78 7 L 78 6 L 76 6 L 76 4 L 75 4 z M 68.1875 9.625 L 69.34375 9.8125 C 70.295291 9.9734 70.78125 10.1558 70.78125 10.8125 C 70.78125 11.496 70.152443 12.0625 69.1875 12.0625 C 68.289568 12.0625 67.625 11.44245 67.625 10.71875 C 67.625 10.28985 67.812245 9.9332 68.1875 9.625 z "
         style="font-size:40px;font-style:normal;font-variant:normal;font-weight:bold;font-stretch:normal;line-height:125%;letter-spacing:0px;word-spacing:0px;fill:#ffffff;fill-opacity:1;stroke:none;font-family:Bitstream Charter;-inkscape-font-specification:Bitstream Charter Bold" />
    </g>
    <flowRoot
       xml:space="preserve"
       id="flowRoot3894"
       style="font-size:40px;font-style:normal;font-variant:normal;font-weight:normal;font-stretch:normal;line-height:125%;letter-spacing:0px;word-spacing:0px;fill:#000000;fill-opacity:1;stroke:none;font-family:Bitstream Charter;-inkscape-font-specification:Bitstream Charter"
       transform="translate(29.65625,1038.6497)"><flowRegion
         id="flowRegion3896"><rect
           id="rect3898"
           width="73.385925"
           height="91.562004"
           x="76.339539"
           y="-13.30893" /></flowRegion><flowPara
         id="flowPara3900"
         style="font-size:8px">g</flowPara></flowRoot>    <g
       id="g3487"
       inkscape:export-filename="/media/Animus/freelance/Resume/facebook-icon.png"
       inkscape:export-xdpi="90"
       inkscape:export-ydpi="90">
      <rect
         style="fill:#000000;fill-opacity:1;fill-rule:nonzero;stroke:none"
         id="rect3892"
         width="16"
         height="16"
         x="80"
         y="1036.3622" />
      <path
         d="m 85.707794,1042.3414 0.996057,0 0,-0.5108 c -2e-6,-0.5704 0.0596,-0.9961 0.178779,-1.277 0.123442,-0.281 0.346915,-0.5087 0.670422,-0.6832 0.327761,-0.1788 0.740656,-0.2682 1.238686,-0.2682 0.510794,0 1.010951,0.077 1.500469,0.2299 l -0.242629,1.2514 c -0.2852,-0.068 -0.559753,-0.1021 -0.823661,-0.1021 -0.25966,0 -0.446953,0.062 -0.561878,0.1851 -0.110676,0.1192 -0.166014,0.3512 -0.16601,0.696 l 0,0.4789 1.340846,0 0,1.411 -1.340846,0 0,5.3698 -1.794178,0 0,-5.3698 -0.996057,0 0,-1.411"
         style="font-size:8px;font-style:normal;font-variant:normal;font-weight:bold;font-stretch:normal;line-height:125%;letter-spacing:0px;word-spacing:0px;fill:#ffffff;fill-opacity:1;stroke:none;font-family:Arial;-inkscape-font-specification:Arial Bold"
         id="path3911"
         inkscape:connector-curvature="0" />
    </g>
    <g
       id="g3483"
       inkscape:export-filename="/media/Animus/freelance/Resume/klout-icon.png"
       inkscape:export-xdpi="90"
       inkscape:export-ydpi="90">
      <rect
         y="1036.3622"
         x="96"
         height="16"
         width="16"
         id="rect3914"
         style="fill:#000000;fill-opacity:1;fill-rule:nonzero;stroke:none" />
      <path
         id="path3931"
         transform="translate(0,1036.3622)"
         d="M 99.34375 2.09375 C 98.051084 2.09375 97 3.11355 97 4.40625 L 97 9.09375 C 97 10.38645 98.051084 11.40625 99.34375 11.40625 L 105.15625 11.40625 L 108.65625 14.90625 L 108.65625 11.40625 C 109.94891 11.40625 111 10.38645 111 9.09375 L 111 4.40625 C 111 3.11355 109.94891 2.09375 108.65625 2.09375 L 99.34375 2.09375 z M 99.25 3.40625 L 101 3.40625 C 101.3358 3.78005 101.70094 4.1816 102.09375 4.625 C 102.48024 5.0623 102.86352 5.50085 103.25 5.90625 L 103.25 3.40625 L 104.75 3.40625 L 104.75 5.90625 C 105.13647 5.50085 105.51977 5.0623 105.90625 4.625 C 106.29906 4.1816 106.63296 3.78005 106.96875 3.40625 L 108.75 3.40625 C 108.30017 3.93845 107.86241 4.4433 107.40625 4.9375 C 106.95641 5.4317 106.46927 5.937 105.96875 6.4375 C 106.49461 6.8747 106.98089 7.398 107.46875 8 C 107.96293 8.6019 108.4564 9.2714 108.90625 10 L 107.125 10 C 106.99195 9.7846 106.83998 9.5596 106.65625 9.3125 C 106.47885 9.0591 106.27791 8.8096 106.0625 8.5625 C 105.85342 8.309 105.66558 8.0406 105.4375 7.8125 C 105.20941 7.5781 104.97808 7.39615 104.75 7.21875 L 104.75 10 L 103.25 10 L 103.25 7.21875 C 103.02192 7.39615 102.79058 7.5781 102.5625 7.8125 C 102.33442 8.0406 102.11534 8.309 101.90625 8.5625 C 101.69085 8.8096 101.4899 9.0591 101.3125 9.3125 C 101.12877 9.5596 100.97681 9.7846 100.84375 10 L 99.09375 10 C 99.543594 9.2714 100.00582 8.6019 100.5 8 C 100.98785 7.398 101.50539 6.8747 102.03125 6.4375 C 101.53073 5.937 101.04358 5.4317 100.59375 4.9375 C 100.13759 4.4433 99.699837 3.93845 99.25 3.40625 z "
         style="fill:#ffffff;fill-opacity:1;fill-rule:nonzero;stroke:none" />
    </g>
    <g
       id="g3478"
       inkscape:export-filename="/media/Animus/freelance/Resume/github-icon.png"
       inkscape:export-xdpi="90"
       inkscape:export-ydpi="90">
      <rect
         style="fill:#000000;fill-opacity:1;fill-rule:nonzero;stroke:none"
         id="rect3933"
         width="16"
         height="16"
         x="112"
         y="1036.3622" />
      <path
         id="rect3935"
         transform="translate(0,1036.3622)"
         d="M 116.65625 1.71875 C 116.41821 1.7282715 116.1875 1.8125 116 2 C 115.46216 2.5378378 115.50375 3.3503634 115.65625 4 C 115.20079 4.4954026 115 5.1610096 115 6 C 115 7.2843758 115.46588 8.6180153 116.34375 9.375 C 115.14117 10.388169 115 12.625 115 12.625 C 116.48357 14.298 117.4375 14.03125 117.4375 14.03125 C 118.14461 12.80655 116.23039 13.3497 116.9375 12.125 C 117.29105 11.5126 117.86835 10.836475 118.375 10.3125 C 118.02643 11.071393 118 11.296233 118 12 C 118 13 119 14 119 14 C 120 13 119 13 120 11 C 121 13 120 13 121 14 C 121 14 122 13 122 12 C 122 11.296233 121.97357 11.071393 121.625 10.3125 C 122.13165 10.836475 122.70895 11.5126 123.0625 12.125 C 123.76961 13.3497 121.85539 12.80655 122.5625 14.03125 C 122.5625 14.03125 123.51643 14.298 125 12.625 C 125 12.625 124.85883 10.388169 123.65625 9.375 C 124.53412 8.6180153 125 7.2843758 125 6 C 125 5.1610096 124.79921 4.4954026 124.34375 4 C 124.49625 3.3503634 124.53784 2.5378378 124 2 C 123.8125 1.8125 123.58179 1.7282715 123.34375 1.71875 C 122.31226 1.6774902 121 3 121 3 L 119 3 C 119 3 117.68774 1.6774902 116.65625 1.71875 z "
         style="fill:#ffffff;fill-opacity:1;fill-rule:nonzero;stroke:none" />
    </g>
    <g
       id="g3474"
       inkscape:export-filename="/media/Animus/freelance/Resume/website-icon.png"
       inkscape:export-xdpi="90"
       inkscape:export-ydpi="90">
      <rect
         y="1036.3622"
         x="128"
         height="16"
         width="16"
         id="rect3966"
         style="fill:#000000;fill-opacity:1;fill-rule:nonzero;stroke:none" />
      <path
         id="path3006"
         transform="translate(0,1036.3622)"
         d="M 136.1875 2 C 136.22961 2.0299254 136.27056 2.0637803 136.3125 2.09375 C 136.3014 2.26085 136.29245 2.42665 136.28125 2.59375 L 135.53125 2.875 C 135.63155 2.7189 135.74345 2.56225 135.84375 2.40625 L 135.40625 2.03125 C 134.75643 2.0939373 134.13497 2.2467384 133.5625 2.5 C 133.8607 2.8213301 134.11236 3.234075 134.40625 3.5625 L 133 4.28125 C 132.92135 4.43095 133.07184 4.93215 132.78125 4.78125 C 132.32038 4.84735 132.68375 5.36815 132.3125 5.53125 C 131.7875 5.67715 132.14204 6.24475 131.96875 6.34375 C 131.61758 6.24955 131.48473 5.8046 131 6 C 130.63287 5.8625 130.31995 6.44985 130.40625 6.65625 C 130.66208 7.17065 131.075 6.6071 131.375 6.9375 C 131.11759 7.4118 131.7239 7.30925 131.6875 7.78125 C 131.95607 7.93555 132.46691 7.8925 132.71875 7.625 C 133.03547 7.5397 133.39444 7.86625 133.78125 7.78125 C 134.14812 7.80645 133.9598 8.47685 134.53125 8.28125 C 134.93155 8.29765 134.47704 9.0985 135.125 8.8125 C 135.51386 9.0023 135.88647 9.39355 136.21875 9.65625 C 135.87219 9.92125 135.8758 10.31585 135.875 10.71875 C 135.17004 11.46155 134.45496 12.1948 133.75 12.9375 C 133.51498 13.070333 133.47906 13.244019 133.46875 13.4375 C 134.23648 13.794315 135.09765 14 136 14 C 139.31371 14 142 11.313708 142 8 C 142 5.445683 140.40555 3.2719654 138.15625 2.40625 L 137.8125 2.71875 L 138.1875 3.21875 L 137.875 3.71875 L 137.8125 3.46875 C 137.81479 3.35935 137.74635 3.26775 137.65625 3.21875 C 137.54765 3.12075 137.37534 2.9852 137.25 3.125 C 137.16469 3.2854 136.96837 3.448 136.78125 3.375 C 136.51657 3.6887 136.30566 4.0659 135.96875 4.3125 L 135.6875 3.53125 L 136.28125 3.40625 L 136.40625 3.09375 L 136.15625 3 L 136.375 2.75 C 136.47481 2.6042 136.61292 2.4235 136.8125 2.4375 L 137.0625 2.09375 C 136.7795 2.0436358 136.48271 2.0089531 136.1875 2 z M 137.03125 4.09375 C 137.05445 4.08375 137.07125 4.09335 137.09375 4.09375 C 137.43113 4.09865 137.70843 4.70195 138.09375 4.40625 C 138.42265 4.05695 138.93919 4.23365 139.34375 4.09375 C 139.77271 4.05235 139.60816 4.66995 139.78125 4.90625 C 139.91652 5.30875 140.1073 5.78305 140.5625 5.90625 L 141.21875 5.71875 C 140.90957 6.26015 140.59064 6.80245 140.28125 7.34375 C 140.0024 7.63695 139.92814 8.12165 140.15625 8.46875 C 140.22917 8.88515 139.5813 9.04145 139.71875 9.46875 L 138.75 11.03125 L 138.0625 11 C 137.77628 10.9017 137.75715 10.40565 137.59375 10.15625 C 137.37313 9.81465 137.20824 9.3529 137.5 9 C 137.71349 8.7143 137.51528 8.35385 137.28125 8.15625 C 136.89323 8.07275 137.44103 7.611 137.0625 7.625 C 136.59086 7.401 136.07383 7.67075 135.59375 7.71875 L 135 7.3125 L 135 6 L 136.4375 4.3125 C 136.64743 4.2888 136.83168 4.15375 137.03125 4.09375 z M 130.03125 7.28125 C 130.00407 7.5129616 130 7.7609876 130 8 C 130 10.030963 131.01834 11.820673 132.5625 12.90625 C 132.6132 12.36373 132.6881 11.851427 132.78125 11.3125 C 132.87961 10.9084 132.98716 10.477 132.46875 10.375 C 132.23003 10.0522 132.12503 9.6192 131.9375 9.25 C 131.69183 8.9054 132.23375 8.61175 132.09375 8.21875 C 131.8434 8.09255 131.3164 8.23255 131.25 7.71875 C 130.85415 7.75875 130.53389 7.49085 130.1875 7.34375 C 130.12813 7.3322 130.08068 7.3091691 130.03125 7.28125 z "
         style="fill:#ffffff;fill-opacity:1;fill-rule:nonzero;stroke:none" />
    </g>
    <g
       id="g3535"
       transform="translate(2,1.000005)"
       inkscape:export-filename="/media/Animus/freelance/Resume/pastebin-icon.png"
       inkscape:export-xdpi="90"
       inkscape:export-ydpi="90">
      <g
         id="g4337">
        <rect
           style="fill:#000000;fill-opacity:1;fill-rule:nonzero;stroke:none"
           id="rect3008"
           width="16"
           height="16"
           x="144"
           y="1036.3622"
           transform="translate(-2,-1.000005)" />
        <g
           transform="matrix(0.96592583,-0.25881905,0.25881905,0.96592583,-264.93088,74.374562)"
           id="g4324">
          <rect
             style="fill:#ffffff;fill-opacity:1;fill-rule:nonzero;stroke:none"
             id="rect3513"
             width="12"
             height="12"
             x="146"
             y="2"
             rx="3"
             ry="3"
             transform="translate(-2,1035.3622)" />
          <g
             id="g4313"
             transform="translate(-19.317188,0.584246)">
            <flowRoot
               transform="matrix(0.80000001,0,0,0.80000001,103.925,1048.2278)"
               style="font-size:6px;font-style:normal;font-variant:normal;font-weight:bold;font-stretch:normal;line-height:125%;letter-spacing:0px;word-spacing:0px;fill:#000000;fill-opacity:1;stroke:#000000;stroke-width:0.3125;stroke-miterlimit:4;stroke-opacity:1;stroke-dasharray:none;font-family:Droid Sans;-inkscape-font-specification:Droid Sans Bold"
               id="flowRoot3515"
               xml:space="preserve"><flowRegion
                 style="stroke-width:0.625"
                 id="flowRegion3517"><rect
                   y="-13.30893"
                   x="76.339539"
                   height="91.562004"
                   width="73.385925"
                   id="rect3519"
                   style="font-size:6px;font-style:normal;font-variant:normal;font-weight:bold;font-stretch:normal;stroke:#000000;stroke-width:0.3125;stroke-miterlimit:4;stroke-opacity:1;stroke-dasharray:none;font-family:Droid Sans;-inkscape-font-specification:Droid Sans Bold" /></flowRegion><flowPara
                 style="font-size:6px;font-style:normal;font-variant:normal;font-weight:bold;font-stretch:normal;stroke:#000000;stroke-width:0.3125;stroke-miterlimit:4;stroke-opacity:1;stroke-dasharray:none;font-family:Droid Sans Mono;-inkscape-font-specification:Droid Sans Mono Bold"
                 id="flowPara3523">101</flowPara></flowRoot>            <flowRoot
               xml:space="preserve"
               id="flowRoot3527"
               style="font-size:6px;font-style:normal;font-variant:normal;font-weight:bold;font-stretch:normal;line-height:125%;letter-spacing:0px;word-spacing:0px;fill:#000000;fill-opacity:1;stroke:#000000;stroke-width:0.3125;stroke-miterlimit:4;stroke-opacity:1;stroke-dasharray:none;font-family:Droid Sans;-inkscape-font-specification:Droid Sans Bold"
               transform="matrix(0.80000001,0,0,0.80000001,103.925,1052.4929)"><flowRegion
                 style="stroke-width:0.625"
                 id="flowRegion3529"><rect
                   style="font-size:6px;font-style:normal;font-variant:normal;font-weight:bold;font-stretch:normal;stroke:#000000;stroke-width:0.3125;stroke-miterlimit:4;stroke-opacity:1;stroke-dasharray:none;font-family:Droid Sans;-inkscape-font-specification:Droid Sans Bold"
                   id="rect3531"
                   width="73.385925"
                   height="91.562004"
                   x="76.339539"
                   y="-13.30893" /></flowRegion><flowPara
                 id="flowPara3533"
                 style="font-size:6px;font-style:normal;font-variant:normal;font-weight:bold;font-stretch:normal;stroke:#000000;stroke-width:0.3125;stroke-miterlimit:4;stroke-opacity:1;stroke-dasharray:none;font-family:Droid Sans Mono;-inkscape-font-specification:Droid Sans Mono Bold">010</flowPara></flowRoot>          </g>
        </g>
      </g>
    </g>
  </g>
</svg>
